<svg width="70" height="65" viewBox="0 0 70 65" fill="none" xmlns="http://www.w3.org/2000/svg">
<path d="M33.6719 32.7706L40.8114 24.7906V42.8975L33.6719 50.8067V38.7253V32.7706Z" fill="#062F6E"/>
<path d="M32.0821 50.8067L24.9325 42.8975V37.3784V24.7906L32.0821 32.7706V38.6442V50.8067Z" fill="#062F6E"/>
<path d="M32.8314 0C13.7321 0 0 13.7321 0 32.8314C0 48.4977 8.62812 59.5968 23.6058 64.2248V23.9197L15.6258 15.0688V50.6142C10.5624 46.1483 8.11164 39.5354 8.11164 32.8314C8.11164 19.1567 19.1972 8.07114 32.8719 8.07114C46.5466 8.07114 57.6322 19.1567 57.6322 32.8314C57.4934 39.4782 54.8662 45.8311 50.2699 50.6345L50.199 15.1903L42.3406 23.94V64.2248C56.5182 59.9107 66.5337 48.437 66.5337 32.8314C66.5337 13.7321 51.9307 0 32.8314 0Z" fill="#062F6E"/>
<path fill-rule="evenodd" clip-rule="evenodd" d="M61.1058 59.5698C61.1021 62.0238 63.0874 64.0167 65.5414 64.0223C66.7348 64.0681 67.8934 63.6148 68.7389 62.7713C69.5844 61.9277 70.0403 60.7701 69.9972 59.5766C69.9972 57.1226 68.0088 55.1327 65.5549 55.1309C63.1009 55.129 61.1095 57.1158 61.1058 59.5698ZM65.5414 55.698C63.9699 55.6857 62.5463 56.6228 61.9364 58.0711C61.3265 59.5194 61.6508 61.1926 62.7576 62.3082C63.8645 63.4238 65.5351 63.7612 66.9882 63.1627C68.4413 62.5642 69.3896 61.1481 69.3896 59.5766C69.4325 58.5407 69.0418 57.5338 68.3116 56.7978C67.5814 56.0618 66.5776 55.6633 65.5414 55.698ZM67.4958 61.9969L66.4021 59.8905H66.392C67.0666 59.7743 67.5513 59.1771 67.5262 58.493C67.5392 58.0839 67.3708 57.6899 67.0662 57.4165C66.7615 57.1432 66.3517 57.0182 65.9464 57.0752H63.921V61.9969H64.7109V59.9715H65.7236L66.7363 61.9969H67.4958ZM64.6401 57.6525H65.9262C66.5338 57.6525 66.8781 57.9259 66.8781 58.493C66.8781 59.0601 66.5642 59.3234 65.8655 59.3234H64.6401V57.6525Z" fill="#062F6E"/>
</svg>
